<svg xmlns="http://www.w3.org/2000/svg" version="1.1" xmlns:xlink="http://www.w3.org/1999/xlink" xmlns:svgjs="http://svgjs.dev/svgjs" width="1440" height="560" preserveAspectRatio="none" viewBox="0 0 1440 560"><g mask="url(&quot;#SvgjsMask1001&quot;)" fill="none"><rect width="1440" height="560" x="0" y="0" fill="rgba(133, 108, 139, 1)"></rect><path d="M0,472.947C100.421,490.21,221.164,531.158,299.408,465.887C379.349,399.2,322.658,261.798,366.375,167.318C410.45,72.064,553.347,25.624,551.683,-79.32C550.057,-181.846,434.309,-241.53,358.791,-310.894C291.302,-372.884,219.941,-425.901,135.527,-461.563C42.12,-501.025,-56.599,-552.346,-155.025,-527.965C-254.404,-503.348,-336.469,-423.46,-384.119,-332.841C-427.759,-249.848,-391.148,-150.942,-402.234,-57.833C-412.952,32.187,-480.08,119.814,-448.116,204.648C-415.976,289.951,-318.045,326.363,-239.835,373.19C-164.012,418.587,-87.096,457.975,0,472.947" fill="#6d5972"></path><path d="M1440 1094.9969999999998C1553.183 1106.78 1672.131 1130.3690000000001 1774.13 1079.9160000000002 1880.346 1027.378 1947.877 922.052 2002.371 816.826 2058.98 707.516 2102.341 588.924 2091.922 466.26800000000003 2081.172 339.71000000000004 2027.208 219.24200000000002 1943.495 123.719 1860.055 28.506999999999948 1750.824-67.5 1624.224-67.41099999999994 1499.604-67.32399999999996 1432.298 91.531 1312.026 124.161 1187.402 157.971 1029.246 34.722999999999956 932.505 120.25299999999999 839.742 202.265 916.994 359.889 905.913 483.21 895.584 598.165 821.781 715.447 869.586 820.499 917.395 925.5609999999999 1043.7640000000001 964.6569999999999 1147.776 1014.71 1240.684 1059.42 1337.448 1084.321 1440 1094.9969999999998" fill="#9a849f"></path></g><defs><mask id="SvgjsMask1001"><rect width="1440" height="560" fill="#ffffff"></rect></mask></defs></svg>